<?xml version="1.0" encoding="UTF-8"?>
<svg id="Layer_1" xmlns="http://www.w3.org/2000/svg" version="1.1" viewBox="0 0 32 32">
  <!-- Generator: Adobe Illustrator 29.1.0, SVG Export Plug-In . SVG Version: 2.1.0 Build 142)  -->
  <defs>
    <style>
      .st0 {
        fill: #c5c5c5;
      }
    </style>
  </defs>
  <path class="st0" d="M19.2,2H8c-1.6,0-3,1.3-3,3v14c0,.6.4,1,1,1h0c.6,0,1-.4,1-1V5c0-.6.4-1,1-1h10c.6,0,1,.4,1,1v4c0,.6.4,1,1,1h4c.6,0,1,.4,1,1v16c0,.6-.4,1-1,1h-8c-.6,0-1,.4-1,1h0c0,.6.4,1,1,1h8c1.6,0,3-1.3,3-3V9.8c0-.8-.3-1.5-.9-2.1l-4.8-4.8c-.6-.6-1.3-.9-2.1-.9Z"/>
  <path class="st0" d="M7,23h0c0,.6.4,1,1,1h1.6l-4.3,4.3c-.2.2-.3.4-.3.7h0c0,.6.4,1,1,1h0c.3,0,.5-.1.7-.3l4.3-4.3v1.6c0,.6.4,1,1,1h0c.6,0,1-.4,1-1v-4c0-.6-.4-1-1-1h-4c-.6,0-1,.4-1,1Z"/>
</svg>